<?xml version="1.0" standalone="no"?>
<!DOCTYPE svg PUBLIC "-//W3C//DTD SVG 20010904//EN"
 "http://www.w3.org/TR/2001/REC-SVG-20010904/DTD/svg10.dtd">
<svg version="1.0" xmlns="http://www.w3.org/2000/svg"
 width="616.000000pt" height="616.000000pt" viewBox="0 0 616.000000 616.000000"
 preserveAspectRatio="xMidYMid meet">

<g transform="translate(0.000000,616.000000) scale(0.100000,-0.100000)"
fill="#000000" stroke="none">
<path d="M3070 5959 c-155 -21 -326 -89 -641 -255 -236 -124 -526 -262 -644
-306 -43 -16 -84 -33 -90 -37 -16 -13 -342 -126 -450 -156 -55 -15 -125 -36
-156 -46 -31 -10 -119 -32 -195 -49 -158 -34 -243 -58 -262 -73 -10 -8 -12
-65 -9 -276 2 -146 9 -322 15 -389 23 -254 77 -652 105 -767 8 -33 29 -127 47
-210 17 -82 37 -166 45 -185 8 -19 28 -86 45 -149 17 -62 38 -130 46 -150 9
-20 33 -85 54 -146 91 -261 225 -548 379 -810 121 -205 154 -260 176 -285 12
-14 39 -50 59 -80 20 -30 46 -68 59 -85 12 -16 36 -48 52 -70 80 -108 365
-430 429 -485 23 -19 71 -64 107 -100 36 -36 81 -77 100 -91 19 -15 45 -37 59
-50 14 -14 48 -42 75 -64 28 -22 55 -44 61 -50 19 -18 145 -109 203 -147 31
-20 61 -40 66 -45 6 -5 44 -29 85 -53 41 -25 77 -47 80 -51 8 -11 192 -99 207
-99 11 0 158 80 188 102 6 5 68 46 138 93 115 77 170 117 277 205 19 16 51 41
71 57 19 15 43 36 52 45 10 9 37 33 61 53 141 115 490 487 611 650 16 22 34
45 40 50 7 6 29 34 50 64 20 30 42 59 46 65 20 23 134 193 161 239 15 26 33
53 39 60 15 17 101 169 146 257 21 41 41 77 44 80 4 3 21 37 38 75 18 39 47
99 65 135 18 36 46 99 61 140 15 41 32 80 37 86 15 20 108 285 153 434 23 80
50 168 59 195 25 76 95 403 121 565 54 337 75 576 82 911 4 214 2 267 -9 276
-19 15 -104 39 -262 73 -76 17 -164 39 -195 49 -31 10 -101 31 -156 46 -108
30 -434 143 -450 156 -6 4 -47 21 -90 37 -106 40 -247 105 -495 231 -515 261
-553 278 -694 311 -102 24 -213 31 -296 19z m225 -334 c33 -9 74 -22 90 -30
17 -7 64 -29 105 -47 41 -18 138 -66 215 -106 181 -96 540 -271 630 -307 39
-16 75 -32 81 -37 17 -12 270 -104 425 -153 74 -24 146 -48 160 -54 13 -6 98
-29 189 -52 91 -23 173 -45 183 -50 14 -8 17 -24 17 -104 0 -201 -26 -463 -79
-795 -23 -142 -68 -367 -76 -381 -3 -5 -23 -78 -45 -163 -21 -85 -43 -163 -49
-173 -5 -11 -26 -71 -47 -134 -38 -119 -122 -329 -193 -484 -51 -110 -152
-308 -161 -315 -4 -3 -20 -30 -35 -60 -26 -52 -114 -195 -162 -263 -12 -18
-39 -56 -59 -86 -102 -153 -261 -352 -404 -506 -80 -86 -98 -104 -235 -233
-168 -158 -177 -167 -220 -198 -22 -16 -44 -34 -50 -41 -28 -33 -336 -250
-391 -275 -18 -8 -35 -3 -95 33 -41 23 -76 45 -79 49 -3 3 -36 26 -75 49 -38
24 -72 47 -75 52 -3 4 -30 24 -60 45 -30 20 -64 45 -75 55 -11 10 -63 53 -115
96 -52 43 -129 112 -170 152 -41 40 -88 85 -105 100 -49 44 -155 160 -238 261
-43 52 -86 104 -96 115 -10 11 -27 34 -37 50 -9 17 -30 44 -44 60 -24 26 -55
73 -209 304 -61 92 -212 372 -274 509 -119 263 -254 644 -297 837 -12 55 -26
107 -30 115 -11 20 -57 251 -82 405 -48 305 -66 474 -74 716 -7 187 -6 197 12
207 10 5 93 28 184 51 91 23 176 46 189 52 14 6 86 30 160 54 155 49 408 141
425 153 6 5 43 21 81 37 90 36 449 211 630 307 77 40 174 88 215 106 41 18 89
40 105 47 91 44 236 56 340 30z"/>
</g>
</svg>
